<svg version="1.1" id="Layer_1" xmlns="http://www.w3.org/2000/svg" xmlns:xlink="http://www.w3.org/1999/xlink" x="0px" y="0px"
	 width="100%" viewBox="0 0 500 500" enable-background="new 0 0 500 500" xml:space="preserve">
<path fill="#000000" opacity="1.000000" stroke="none" 
	d="
M350.000000,501.000000 
	C233.333359,501.000000 117.166725,501.000000 1.000062,501.000000 
	C1.000041,334.333405 1.000041,167.666809 1.000021,1.000152 
	C167.666550,1.000101 334.333099,1.000101 500.999756,1.000051 
	C500.999817,167.666519 500.999817,334.333038 500.999908,500.999786 
	C450.833344,501.000000 400.666656,501.000000 350.000000,501.000000 
M296.205627,381.299530 
	C304.792511,381.586212 313.548340,383.095184 321.935364,381.935913 
	C349.750580,378.091064 369.084320,362.281799 378.625458,336.162628 
	C388.372772,309.479004 383.874634,284.027740 364.418365,263.211823 
	C340.305389,237.413788 314.725830,212.986298 289.771637,187.974915 
	C281.435791,179.619965 273.074799,171.290100 265.299805,163.522705 
	C270.000885,158.437103 273.895477,153.044662 278.897797,149.033691 
	C293.908112,136.998138 311.037170,133.854218 329.094513,140.481888 
	C347.944061,147.400314 358.938568,161.363922 362.219421,181.328842 
	C363.991608,192.113098 361.499603,202.055283 357.309357,211.889023 
	C352.973877,222.063553 355.013428,231.636551 362.579834,238.927017 
	C363.699036,237.694016 364.848145,236.489639 365.929810,235.227463 
	C396.023682,200.111115 385.675964,146.098434 344.774567,124.771950 
	C317.045837,110.313850 283.237122,115.471664 260.483551,137.999420 
	C229.217102,168.955505 198.130753,200.093643 167.045395,231.231827 
	C165.694366,232.585159 165.123734,234.717545 164.096329,236.663620 
	C159.649841,232.129532 156.967133,229.398743 154.289597,226.662888 
	C138.577789,210.608856 135.050430,185.858353 145.670609,166.197021 
	C156.490067,146.166748 179.015823,135.532181 201.406311,140.356293 
	C207.026352,141.567154 212.316986,144.270493 217.795227,146.184219 
	C226.349930,149.172638 235.996078,146.437027 241.025970,139.689713 
	C210.459167,107.207367 153.778580,113.564507 130.127151,152.127808 
	C111.860252,181.911758 116.319489,217.780167 141.553131,243.078598 
	C172.154526,273.758545 202.813049,304.381622 233.519226,334.956665 
	C234.892395,336.323944 236.981430,336.972321 237.657684,337.351074 
	C232.235306,343.352783 228.529343,348.422363 223.899063,352.421844 
	C195.180023,377.228210 149.986710,362.683594 140.875549,325.892883 
	C137.823959,313.570557 139.615601,301.895477 144.725235,290.405365 
	C149.260590,280.206696 146.891876,269.110077 139.428497,263.165436 
	C126.485641,276.711121 119.285133,292.684723 118.892647,311.549255 
	C118.294540,340.296753 134.422440,367.128174 159.269516,378.074768 
	C188.551682,390.975311 215.885727,386.934906 239.456818,365.683136 
	C258.742584,348.294952 276.536469,329.247345 294.911957,310.855713 
	C309.625183,296.129547 324.218536,281.283600 338.783997,266.572723 
	C342.951477,270.610718 347.034668,273.852905 350.245880,277.803802 
	C363.162170,293.695312 366.580627,311.611359 358.820343,330.612122 
	C350.881470,350.050293 335.627472,360.426117 314.688354,362.221802 
	C304.801392,363.069672 295.683319,360.198517 286.652802,356.449158 
	C277.507721,352.652222 267.324585,355.136414 260.978638,362.220795 
	C270.619324,371.880798 282.171387,377.980743 296.205627,381.299530 
z"/>
<path fill="#FCFCFC" opacity="1.000000" stroke="none" 
	d="
M295.796753,381.200928 
	C282.171387,377.980743 270.619324,371.880798 260.978638,362.220795 
	C267.324585,355.136414 277.507721,352.652222 286.652802,356.449158 
	C295.683319,360.198517 304.801392,363.069672 314.688354,362.221802 
	C335.627472,360.426117 350.881470,350.050293 358.820343,330.612122 
	C366.580627,311.611359 363.162170,293.695312 350.245880,277.803802 
	C347.034668,273.852905 342.951477,270.610718 338.783997,266.572723 
	C324.218536,281.283600 309.625183,296.129547 294.911957,310.855713 
	C276.536469,329.247345 258.742584,348.294952 239.456818,365.683136 
	C215.885727,386.934906 188.551682,390.975311 159.269516,378.074768 
	C134.422440,367.128174 118.294540,340.296753 118.892647,311.549255 
	C119.285133,292.684723 126.485641,276.711121 139.428497,263.165436 
	C146.891876,269.110077 149.260590,280.206696 144.725235,290.405365 
	C139.615601,301.895477 137.823959,313.570557 140.875549,325.892883 
	C149.986710,362.683594 195.180023,377.228210 223.899063,352.421844 
	C228.529343,348.422363 232.235306,343.352783 237.657684,337.351074 
	C236.981430,336.972321 234.892395,336.323944 233.519226,334.956665 
	C202.813049,304.381622 172.154526,273.758545 141.553131,243.078598 
	C116.319489,217.780167 111.860252,181.911758 130.127151,152.127808 
	C153.778580,113.564507 210.459167,107.207367 241.025970,139.689713 
	C235.996078,146.437027 226.349930,149.172638 217.795227,146.184219 
	C212.316986,144.270493 207.026352,141.567154 201.406311,140.356293 
	C179.015823,135.532181 156.490067,146.166748 145.670609,166.197021 
	C135.050430,185.858353 138.577789,210.608856 154.289597,226.662888 
	C156.967133,229.398743 159.649841,232.129532 164.096329,236.663620 
	C165.123734,234.717545 165.694366,232.585159 167.045395,231.231827 
	C198.130753,200.093643 229.217102,168.955505 260.483551,137.999420 
	C283.237122,115.471664 317.045837,110.313850 344.774567,124.771950 
	C385.675964,146.098434 396.023682,200.111115 365.929810,235.227463 
	C364.848145,236.489639 363.699036,237.694016 362.579834,238.927017 
	C355.013428,231.636551 352.973877,222.063553 357.309357,211.889023 
	C361.499603,202.055283 363.991608,192.113098 362.219421,181.328842 
	C358.938568,161.363922 347.944061,147.400314 329.094513,140.481888 
	C311.037170,133.854218 293.908112,136.998138 278.897797,149.033691 
	C273.895477,153.044662 270.000885,158.437103 265.299805,163.522705 
	C273.074799,171.290100 281.435791,179.619965 289.771637,187.974915 
	C314.725830,212.986298 340.305389,237.413788 364.418365,263.211823 
	C383.874634,284.027740 388.372772,309.479004 378.625458,336.162628 
	C369.084320,362.281799 349.750580,378.091064 321.935364,381.935913 
	C313.548340,383.095184 304.792511,381.586212 295.796753,381.200928 
M313.652161,240.848022 
	C292.542633,219.668106 271.433075,198.488174 250.567719,177.553238 
	C226.082550,202.166901 202.176331,226.198547 179.098465,249.397507 
	C203.513290,273.948883 228.217880,298.791656 252.339218,323.047882 
	C275.965240,299.342560 299.900360,275.327118 324.174774,250.971237 
	C321.101929,248.020935 317.627014,244.684601 313.652161,240.848022 
z"/>
<path fill="#000000" opacity="1.000000" stroke="none" 
	d="
M313.902100,241.098145 
	C317.627014,244.684601 321.101929,248.020935 324.174774,250.971237 
	C299.900360,275.327118 275.965240,299.342560 252.339218,323.047882 
	C228.217880,298.791656 203.513290,273.948883 179.098465,249.397507 
	C202.176331,226.198547 226.082550,202.166901 250.567719,177.553238 
	C271.433075,198.488174 292.542633,219.668106 313.902100,241.098145 
z"/>
</svg>